<?xml version="1.0" encoding="UTF-8" standalone="no"?>
<svg width="32px" height="32px" viewBox="0 0 32 32" version="1.1" xmlns="http://www.w3.org/2000/svg" xmlns:xlink="http://www.w3.org/1999/xlink">
    <!-- Generator: Sketch 3.6.1 (26313) - http://www.bohemiancoding.com/sketch -->
    <title>profile</title>
    <desc>Created with Sketch.</desc>
    <defs></defs>
    <g id="Page-1" stroke="none" stroke-width="1" fill="none" fill-rule="evenodd">
        <g id="profile">
            <g id="User-Photo" transform="translate(1.000000, 1.000000)">
                <circle id="Circle" stroke="#FFFFFF" stroke-width="1.25" cx="15" cy="15" r="15"></circle>
                <path d="M24.7431863,25.1825693 C22.2657087,27.5963757 18.8808248,29.0833333 15.1486434,29.0833333 C11.2433531,29.0833333 7.71832482,27.4552384 5.21527617,24.8407663 C5.569658,24.6983543 7.77623181,23.8190854 9,23.509009 C10.3333333,23.1711712 10.8333333,22.4954955 11.1666667,22.1576577 C11.5,21.8198198 11.5,20.9752252 11.5,20.1306306 C11.5,19.286036 10.6666667,18.7792793 10.6666667,18.1036036 C10.6666667,17.4279279 10.8333333,16.2454955 10.3333333,16.0765766 C9.83333333,15.9076577 9.66666667,15.5698198 9.5,15.0630631 C9.33333333,14.5563063 9,14.0495495 9,13.204955 C9,12.3603604 9.5,12.3603604 9.5,12.3603604 C9.5,12.3603604 9.16666667,10.5022523 9.16666667,8.64414414 C9.16666667,6.78603604 10.6666667,5.94144144 10.6666667,5.94144144 C10.6666667,5.94144144 12.5,4.08333333 14.8333333,4.08333333 C17.8333333,4.08333333 20.3333333,5.77252252 20.3333333,8.98198198 C20.3333333,10.8400901 19.8333333,12.3603604 19.8333333,12.3603604 C19.8333333,12.3603604 20.3333333,12.5292793 20.3333333,13.204955 C20.3333333,13.8806306 20.1666667,14.5563063 19.8333333,15.231982 C19.5,15.9076577 19.1666667,15.9076577 18.8333333,16.2454955 C18.6316086,16.4499462 18.6666667,17.8174512 18.6666667,18.2725225 C18.6666667,18.9481982 17.8333333,19.6238739 17.8333333,20.1306306 C17.8333333,20.6373874 17.6666667,21.8198198 18.1666667,22.3265766 C18.6666667,22.8333333 19.6666667,23.509009 21.8333333,24.0157658 C23.3711212,24.3754355 24.3212094,24.9052885 24.7431863,25.1825693 Z" id="User" fill="#FFFFFF"></path>
            </g>
        </g>
    </g>
</svg>